# xmcd
#
# Track frame offsets: 
#        150
#        29374
#        42615
#        58499
#        73344
#        97333
#        109230
#        132008
#        142941
#        158664
#        175676
#        186127
#        199938
#        218496
#        237941
#
# Disc length: 3360 seconds
#
# Revision: 0
# Processed by: cddbd v1.5.1PL0 Copyright (c) Steve Scherf et al.
# Submitted via: ExactAudioCopy v0.90b4
#
DISCID=e20d1e0f
DTITLE=Sue Keller - Wild Women Don't Have The Blues
DYEAR=2001
DGENRE=Ragtime Blues
TTITLE0=Am I Blue
TTITLE1=Wild Women
TTITLE2=Yo' Mama Blues
TTITLE3=Ole Miss Blues
TTITLE4=Walkin' After Midnight
TTITLE5=Long-Time Man
TTITLE6=Crazy
TTITLE7=My Baby's Hot For Me
TTITLE8=Backwater Blues
TTITLE9=Cow Cow Boogie
TTITLE10=Booglie Wooglie Piggy
TTITLE11=Snakey Blues
TTITLE12=Yellow Dog Blues
TTITLE13=Beale Street Mama
TTITLE14=Woverine Blues
EXTD=
EXTT0=
EXTT1=
EXTT2=
EXTT3=
EXTT4=
EXTT5=
EXTT6=
EXTT7=
EXTT8=
EXTT9=
EXTT10=
EXTT11=
EXTT12=
EXTT13=
EXTT14=
PLAYORDER=
